<?xml version="1.0" encoding="UTF-8"?><svg id="a" xmlns="http://www.w3.org/2000/svg" width="540" height="540" xmlns:xlink="http://www.w3.org/1999/xlink" viewBox="0 0 540 540"><defs><linearGradient id="b" x1="-2821.26" y1="987.99" x2="-2821.26" y2="986.49" gradientTransform="translate(295241.72 129257.95) scale(104.58 -130.86)" gradientUnits="userSpaceOnUse"><stop offset="0" stop-color="#f1f5f9"/><stop offset="1" stop-color="#cbd5e1"/></linearGradient><linearGradient id="c" x1="-2828" y1="987.6" x2="-2828" y2="986.6" gradientTransform="translate(393255.2 133512.56) scale(138.99 -135.16)" gradientUnits="userSpaceOnUse"><stop offset="0" stop-color="#fff"/><stop offset=".5" stop-color="#a7b8cf"/></linearGradient></defs><rect x="96.91" y="10.13" width="346.18" height="519.75" rx="28.45" ry="28.45" fill="#e2e8f0"/><rect x="110.41" y="182.73" width="319.18" height="333.64" rx="14.95" ry="14.95" fill="#f1f5f9"/><path d="m327.12,33.59h2.93c1.64,0,2.72.96,2.72,2.46,0,2.03-1.22,3.2-3.44,3.2h-1.9l-.68,3.18h-1.5l1.89-8.84h0Zm2.26,4.22c1.19,0,1.81-.56,1.81-1.62,0-.7-.47-1.16-1.43-1.16h-1.46l-.58,2.78h1.65Zm3.44,1.79c0-2.19,1.39-3.69,3.44-3.69,1.76,0,2.95,1.21,2.95,2.98,0,2.2-1.38,3.69-3.44,3.69-1.76,0-2.95-1.21-2.95-2.98Zm3.02,1.68c1.15,0,1.86-.98,1.86-2.43,0-1.02-.6-1.63-1.5-1.63-1.15,0-1.86.98-1.86,2.43,0,1.02.6,1.63,1.5,1.63Zm4.57-5.22h1.44l.27,4.56,2.17-4.56h1.58l.22,4.6,2.17-4.6h1.5l-3.18,6.37h-1.56l-.24-4.86-2.33,4.86h-1.57l-.46-6.37h0Zm9.2,3.53c0-2.19,1.4-3.67,3.47-3.67,1.93,0,2.94,1.52,2.25,3.78h-4.3c0,1.06.78,1.62,1.98,1.62.77,0,1.4-.19,2.03-.57l-.3,1.41c-.61.3-1.29.45-1.97.42-1.99,0-3.14-1.15-3.14-3h0Zm4.53-1.03c.12-.83-.3-1.41-1.18-1.41s-1.51.59-1.76,1.41h2.94,0Zm3.34-2.5h1.49l-.27,1.23c.78-1.64,2.47-1.31,2.67-1.24l-.34,1.41c-.17-.06-2.22-.61-2.72,1.62l-.71,3.36h-1.49l1.37-6.37Zm3.77,3.53c0-2.19,1.4-3.67,3.47-3.67,1.93,0,2.94,1.52,2.25,3.78h-4.3c0,1.06.78,1.62,1.98,1.62.77,0,1.4-.19,2.03-.57l-.3,1.41c-.61.3-1.29.45-1.97.42-1.99,0-3.14-1.15-3.14-3h0Zm4.53-1.03c.12-.83-.3-1.41-1.18-1.41s-1.51.59-1.76,1.41h2.94,0Zm2.17,1.31c0-2.35,1.31-3.95,3.14-3.95.96,0,1.7.51,1.98,1.26l.76-3.59h1.49l-1.89,8.84h-1.49l.19-.89c-.38.66-1.09,1.06-1.85,1.04-1.44,0-2.34-1.14-2.34-2.72h0Zm2.89,1.46c.85,0,1.46-.56,1.67-1.5l.16-.78c.23-1.06-.3-1.86-1.31-1.86-1.15,0-1.87,1.04-1.87,2.5,0,1.02.53,1.65,1.35,1.65h0Zm9.26,0l-.24,1.12h-1.49l1.89-8.84h1.49l-.7,3.35c.43-.64,1.15-1.02,1.92-1.01,1.44,0,2.27,1.12,2.27,2.66,0,2.43-1.31,4.01-3.1,4.01-.95,0-1.75-.51-2.03-1.27h0Zm1.76,0c1.12,0,1.8-1.02,1.8-2.52,0-1-.48-1.63-1.34-1.63s-1.47.54-1.67,1.49l-.16.76c-.23,1.1.33,1.9,1.37,1.9h0Zm5.48,1.12l-1-6.38h1.47l.64,4.58,2.57-4.58h1.63l-5.12,8.8h-1.67l1.49-2.42h0Zm22.63-6.56c.88-.76,2.51-2.13,4.66-3.53,1.63,1.06,3.19,2.24,4.66,3.53.22,1.14.6,3.24.72,5.8-1.74.88-3.54,1.64-5.38,2.27-1.85-.63-3.64-1.38-5.38-2.27.14-2.56.51-4.66.72-5.8Zm12.6-7.67s.79-.28,1.7-.43c-2.53-2.27-5.79-3.58-9.19-3.67.64.68,1.23,1.61,1.77,2.65,1.77.21,3.92.68,5.71,1.46h0Zm-2.61,17.7c-1.99-.39-3.91-.94-5.33-1.46-1.74.62-3.52,1.1-5.33,1.46.12,1.45.34,2.93.73,4.42,0,0,1.49,1.75,4.61,2.7,3.11-.94,4.61-2.7,4.61-2.7.39-1.48.62-2.97.73-4.42h-.02Zm-13.28-17.71c1.83-.75,3.75-1.24,5.72-1.46.47-.96,1.07-1.85,1.77-2.65-3.4.1-6.66,1.4-9.19,3.67.92.15,1.7.43,1.7.43Zm-4.55,8.46c1.06,1.05,2.22,2,3.45,2.84,1.21-1.4,2.53-2.7,3.93-3.9.26-1.5.74-3.44,1.41-5.35-1.34-.65-2.74-1.18-4.18-1.57,0,0-2.27.41-4.64,2.64-.74,3.17.04,5.34.04,5.34h0Zm24.99,0s.78-2.17.04-5.34c-2.37-2.23-4.64-2.64-4.64-2.64-1.48.41-2.88.95-4.18,1.57.6,1.75,1.07,3.53,1.41,5.35,1.41,1.2,2.72,2.5,3.93,3.9,1.23-.84,2.39-1.79,3.45-2.84h0Zm-25.44.19s-.64-.54-1.22-1.25c-.68,3.22-.26,6.68,1.41,9.8.27-.9.77-1.87,1.41-2.86-.79-1.81-1.33-3.72-1.6-5.67h0Zm7.95,13.76c-1.56-1.21-2.95-2.63-4.12-4.22-1.18.06-2.28,0-3.18-.21,1.79,2.89,4.55,5.06,7.78,6.11-.33-.87-.48-1.69-.48-1.69h0Zm17.94-13.76s.64-.54,1.22-1.25c.68,3.22.26,6.68-1.41,9.8-.27-.9-.77-1.87-1.41-2.86.79-1.81,1.33-3.72,1.6-5.67h0Zm-7.95,13.76c1.56-1.21,2.95-2.63,4.12-4.22,1.18.06,2.28,0,3.18-.21-1.79,2.89-4.55,5.06-7.78,6.11.33-.87.48-1.69.48-1.69h0Zm-4.99-24.74l-3.97,2.36,1.22,3.77h5.52l1.22-3.77-3.97-2.36h0Zm-10.99,19.04l4.03,2.27,2.65-2.94-2.76-4.77-3.88.83-.06,4.62h0Zm21.98,0l-.06-4.62-3.88-.83-2.76,4.77,2.65,2.94,4.03-2.27h0Z" fill="#f1f5f9"/><path d="m199.29,114.85c-1.13-3.52-2.33-7.02-3.59-10.5,4.86-5.33,34.02-39.29,23.66-66.45,10.19,10.29,7.9,27.82,3.46,40.45-4.62,12.67-12.95,25.53-23.53,36.49h0Zm29.79,20.08c-5.66,5.9-19.73,17.28-20.9,18.1,2.45,2.06,5.01,4,7.66,5.81,7.05-5.26,13.54-11.23,19.37-17.82-2.02-2.05-4.06-4.08-6.13-6.08h0Zm-28.59-16.14c1.06,3.7,2.07,7.42,3.02,11.15-4.63-1.32-8.35-2.44-11.92-3.68-6.35,4.92-13.19,9.19-20.4,12.74l15.27,5.27c14.3-7.94,27.13-20.08,36.46-33.44,0,0,8.25-12.1,11.98-22.83,2.53-7.21,4.3-15.98,3.37-24-2.13-11.83-6.7-15.27-8.99-17.03,5.94,5.52,3.13,26.81-2.69,38.47-5.86,11.73-15.17,23.4-26.08,33.35h0Zm56.94-36.51c-.03,7.44-2.94,15.13-6.21,21.88,1.64,2.12,3.07,4.2,4.26,6.26,7.69-15.92,3.61-25.72,1.95-28.14Zm-102,51.29l12.05,4.15c7.39-3.37,14.32-7.64,20.65-12.72-3.46-1.33-6.87-2.78-10.23-4.35-6.88,5.29-14.44,9.63-22.47,12.92h0Zm84.64-41.2c.83.74,5.25,5,6.51,6.35,6.16-16.02.75-27.83-1.22-29.47.69,7.76-1.95,15.92-5.28,23.12h0Zm-13.78,39.17l-2.38-14.64c-9.86,11.28-21.5,20.88-34.46,28.4,6.57,2.28,12.24,4.24,14.9,5.19,8.1-5.34,15.48-11.71,21.94-18.96h0Zm-41.1,33.49c4.32,2.83,12.48,4.09,18.13,1.19,5.81-3.7-.58-8.04-7.72-9.53-9.45-1.96-16.22,1.18-12.92,5.99.4.58,1.15,1.45,2.53,2.35m-1.77.39c-3.43-2.29-6.53-6.94-.22-9.72,10.04-3.31,27.38,3.09,24.1,8.89-.56,1-1.41,1.54-2.29,2.11h-.03v.02h-.03v.02h-.03c-6.79,3.52-16.45,2.05-21.5-1.31m5.28-3.72c1.41,1.05,3.29,1.23,4.88.47l1.3-.71-4.51-2.3-1.42.76c-.37.21-1.48.85-.25,1.77m-1.64.57c-2.27-1.51-.75-2.52-.02-3,1.05-.55,2.11-1.11,3.16-1.71,6.7,3.54,6.96,3.67,12.72,5.95l-1.33.78c-1.86-.75-4.36-1.76-6.19-2.58.83,1.35,1.92,3.15,2.8,4.47l-1.62.84c-.72-1.23-1.7-2.88-2.38-4.14-3.08,1.99-6.74-.35-7.15-.62" fill="url(#b)"/><path d="m249.88,60.14c-15.06-27.32-38.26-36.04-53.55-36.04-11.49,0-25.04,5.57-35.52,12.7,9.2,4.22,21.08,15.39,21.23,15.53-7.66-2.94-17.19-6.48-32.04-7.59-7.03,5.86-13.42,12.45-19.06,19.65.74,7.39,2.78,15.12,2.78,15.12-6.06-4.58-10.63-4.45-17.36,9.11-5.21,12.21-6.68,23.38-4.48,32,0,0,4.55,25.84,34.94,38.64-1.25-4.45-1.52-9.56-.9-15.17-5.34-2.63-10.4-5.82-15.07-9.52.76-6.37,2.69-13.33,5.79-20.6,4.26-10.28,4.19-14.6,4.19-14.65.03.07,5.28,11.99,12.49,21.29,4.08-8.52,9.12-15.51,13.18-21.05l-3.64-6.51c5.29-6.55,11.16-12.6,17.54-18.08,1.98,1.03,4.62,2.38,6.6,3.45,8.37-7.01,18.56-13.55,29.47-17.64-6.75-11.08-15.45-18.58-15.45-18.58,0,0,26.71,2.64,40.52,15.13,2.92.43,5.75,1.37,8.34,2.79h0Zm-125.89,53.18c-1.25,3.94-2.13,7.98-2.64,12.07-2.26-2.64-4.26-5.5-5.97-8.52.5-3.96,1.36-7.86,2.56-11.67,1.71-5.12,3.23-5.7,5.65-2.15v-.05c2.06,2.96,1.75,5.92.41,10.32Zm31.93-34.06l-.05.05c-2.75-5.7-5.25-11.53-7.49-17.45l.13-.13c6.08,1.94,12.05,4.18,17.9,6.73-3.69,3.41-7.19,7.03-10.49,10.82h0Zm52.88-45.69c-4.26.68-8.7,1.88-13.18,3.59-2.38-1.89-4.9-3.6-7.53-5.12,4.06-1.56,8.26-2.71,12.56-3.41,1.48-.18,6.01-.76,9.95,2.33v-.05c2.38,1.84.13,2.29-1.79,2.65h0Z" fill="url(#c)"/><path d="m371.25,167.79c-7.44,0-13.5-6.06-13.5-13.5s6.06-13.5,13.5-13.5h43.39c7.44,0,13.5,6.06,13.5,13.5s-6.06,13.5-13.5,13.5h-43.39Z" fill="#f1f5f9"/><path d="m392.95,75.4c-19.97,0-36.16,11.19-36.16,24.98s16.19,24.98,36.16,24.98,36.16-11.19,36.16-24.98-16.19-24.98-36.16-24.98Zm12.38,40.17v-7.05l9.39-3.06-24.6-7.99,13.51,18.59c-6.51,1.72-13.34,1.85-19.9.37v-8.03l9.39-3.06-24.6-7.99,13.56,18.66c-10.53-2.89-17.96-9.86-17.96-18.01,0-6,4.02-11.36,10.35-14.93l13.73,18.9v-9.87l9.39-3.06-21.28-6.91c5.21-2.41,10.89-3.62,16.63-3.57,10.9,0,20.38,4.08,25.27,10.1l-22.34-7.26,15.2,20.92v-9.87l8.02-2.6c1.7,2.39,2.64,5.24,2.67,8.18,0,7.75-6.72,14.44-16.44,17.57h0Z" fill="#f1f5f9"/></svg>