<?xml version="1.0" encoding="utf-8"?>
<!-- Generator: Adobe Illustrator 27.6.1, SVG Export Plug-In . SVG Version: 6.00 Build 0)  -->
<svg version="1.1" id="Layer_1" xmlns="http://www.w3.org/2000/svg" xmlns:xlink="http://www.w3.org/1999/xlink" x="0px" y="0px"
	 viewBox="0 0 540 540" style="enable-background:new 0 0 540 540;" xml:space="preserve">
<style type="text/css">
	.st0{fill:none;stroke:#00C1FA;stroke-width:0.15;}
	
		.st1{fill:url(#SVGID_1_);stroke:url(#SVGID_00000165915092354694043460000017944569846742924680_);stroke-width:0.9643;stroke-miterlimit:3.8571;}
	
		.st2{fill:#00C1FA;stroke:url(#SVGID_00000168102277978480595510000009843547033239771813_);stroke-width:0.9643;stroke-miterlimit:3.8571;}
	.st3{fill:#00B4EA;}
	.st4{fill:none;stroke:#005669;stroke-width:2.8929;stroke-miterlimit:3.8571;}
	.st5{fill:#005669;}
	.st6{fill:#00C1FA;}
	.st7{fill:url(#SVGID_00000008141506112274723930000007425898868000965272_);}
	.st8{fill:url(#SVGID_00000163765885559408999650000015418825674551861129_);}
	.st9{fill:none;stroke:#00C1FA;stroke-width:1.9286;stroke-miterlimit:3.8571;}
	.st10{fill:#A7B8CF;}
	.st11{clip-path:url(#SVGID_00000064335165464427821190000009557987834768591521_);}
	.st12{fill:url(#SVGID_00000022552436234053401170000000691016185969007496_);}
	.st13{fill:#E2E8F0;}
	.st14{fill:#F1F5F9;}
	.st15{fill:url(#SVGID_00000046340887544915074870000015782974537827239585_);}
	.st16{fill:url(#SVGID_00000160173736610632395850000015443366374227507865_);}
</style>
<symbol  id="a" viewBox="-150.1 -150 300.1 300">
	<path class="st0" d="M-144-150v300 M-147-150v300 M-150-150v300 M-141-150v300 M-138-150v300 M-135-150v300 M-132-150v300
		 M-129-150v300 M-126-150v300 M-123-150v300 M-120-150v300 M-117-150v300 M-114-150v300 M-111-150v300 M-108-150v300 M-105-150v300
		 M-102-150v300 M-99-150v300 M-96-150v300 M-93-150v300 M-90-150v300 M-87-150v300 M-84-150v300 M-81-150v300 M-78-150v300
		 M-75-150v300 M-72-150v300 M-69-150v300 M-66-150v300 M-63-150v300 M-60-150v300 M-57-150v300 M-54-150v300 M-51-150v300 M-48-150
		v300 M-45-150v300 M-42-150v300 M-39-150v300 M-36-150v300 M-33-150v300 M-30-150v300 M-27-150v300 M-24-150v300 M-21-150v300
		 M-18-150v300 M-15-150v300 M-12-150v300 M-9-150v300 M-6-150v300 M-3-150v300 M0-150v300 M3-150v300 M6-150v300 M9-150v300
		 M12-150v300 M15-150v300 M18-150v300 M21-150v300 M24-150v300 M27-150v300 M30-150v300 M33-150v300 M36-150v300 M39-150v300
		 M42-150v300 M45-150v300 M48-150v300 M51-150v300 M54-150v300 M57-150v300 M60-150v300 M63-150v300 M66-150v300 M69-150v300
		 M72-150v300 M75-150v300 M78-150v300 M81-150v300 M84-150v300 M87-150v300 M90-150v300 M93-150v300 M96-150v300 M99-150v300
		 M102-150v300 M105-150v300 M108-150v300 M111-150v300 M114-150v300 M117-150v300 M120-150v300 M123-150v300 M126-150v300 M129-150
		v300 M132-150v300 M135-150v300 M138-150v300 M141-150v300 M144-150v300 M147-150v300 M150-150v300"/>
</symbol>
<linearGradient id="SVGID_1_" gradientUnits="userSpaceOnUse" x1="-2841.8877" y1="990.1169" x2="-2841.8877" y2="989.1169" gradientTransform="matrix(346.1786 0 0 -519.75 983510.6875 514623.375)">
	<stop  offset="0" style="stop-color:#2E3847"/>
	<stop  offset="1" style="stop-color:#000000"/>
</linearGradient>
<linearGradient id="SVGID_00000026847202475269743810000002377987357353265572_" gradientUnits="userSpaceOnUse" x1="-2841.8877" y1="990.1169" x2="-2841.8877" y2="989.1169" gradientTransform="matrix(346.1786 0 0 -519.75 983510.6875 514623.375)">
	<stop  offset="0" style="stop-color:#8091A8"/>
	<stop  offset="1" style="stop-color:#2E3848"/>
</linearGradient>
<path style="fill:url(#SVGID_1_);stroke:url(#SVGID_00000026847202475269743810000002377987357353265572_);stroke-width:0.9643;stroke-miterlimit:3.8571;" d="
	M-434.6,10.1h289.3c15.7,0,28.4,12.7,28.4,28.4v462.9c0,15.7-12.7,28.4-28.4,28.4h-289.3c-15.7,0-28.4-12.7-28.4-28.4V38.6
	C-463.1,22.9-450.4,10.1-434.6,10.1z"/>
<linearGradient id="SVGID_00000093899193022532301090000008773533533560167327_" gradientUnits="userSpaceOnUse" x1="-2841.3284" y1="988.6243" x2="-2841.3284" y2="989.6243" gradientTransform="matrix(319.1786 0 0 -333.6429 906601.1875 330363.8125)">
	<stop  offset="0" style="stop-color:#B1EFFD"/>
	<stop  offset="1" style="stop-color:#00C1FA"/>
</linearGradient>
<path style="fill:#00C1FA;stroke:url(#SVGID_00000093899193022532301090000008773533533560167327_);stroke-width:0.9643;stroke-miterlimit:3.8571;" d="
	M-434.6,182.7h289.3c8.3,0,14.9,6.7,14.9,14.9v303.8c0,8.3-6.7,14.9-14.9,14.9h-289.3c-8.3,0-14.9-6.7-14.9-14.9V197.7
	C-449.6,189.4-442.9,182.7-434.6,182.7z"/>
<path class="st3" d="M-154,492.8h-118.6v-26H-154V492.8z M-145.4,220.8h-289.3v26h289.3V220.8z M-145.4,278.7h-289.3v26h289.3V278.7
	z M-145.4,307.6h-289.3v26h289.3V307.6z M-145.4,336.5h-289.3v26h289.3V336.5z M-145.4,365.5h-289.3v26h289.3V365.5z"/>
<text transform="matrix(1 0 0 1 -269.75 486.9648)" class="st5" style="font-family:'ArialMT'; font-size:46.2857px;">--</text>
<text transform="matrix(1 0 0 1 -177.1782 486.9648)" class="st5" style="font-family:'ArialMT'; font-size:46.2857px;">%</text>
<g>
	<defs>
		<rect id="SVGID_00000104671625540769888980000012557934670891501219_" x="-434.6" y="212.1" width="289.4" height="289.3"/>
	</defs>
	<clipPath id="SVGID_00000070101627688287635830000002101252744125932199_">
		<use xlink:href="#SVGID_00000104671625540769888980000012557934670891501219_"  style="overflow:visible;"/>
	</clipPath>
	<g style="clip-path:url(#SVGID_00000070101627688287635830000002101252744125932199_);">
		
			<use xlink:href="#a"  width="300.1" height="300" x="-150.1" y="-150" transform="matrix(0.9643 0 0 0.9643 -289.9325 356.7857)" style="overflow:visible;"/>
	</g>
</g>
<g>
	<defs>
		<rect id="SVGID_00000085229353523643447370000016864957573108541372_" x="-434.6" y="212" width="289.3" height="289.4"/>
	</defs>
	<clipPath id="SVGID_00000150080234649138778810000015954044460811798705_">
		<use xlink:href="#SVGID_00000085229353523643447370000016864957573108541372_"  style="overflow:visible;"/>
	</clipPath>
	<g style="clip-path:url(#SVGID_00000150080234649138778810000015954044460811798705_);">
		
			<use xlink:href="#a"  width="300.1" height="300" x="-150.1" y="-150" transform="matrix(5.904548e-17 -0.9643 0.9643 5.904548e-17 -290 356.7182)" style="overflow:visible;"/>
	</g>
</g>
<path class="st4" d="M-276.5,459.5h126.3c1.9,0,3.4,1.5,3.4,3.4v33.8c0,1.9-1.5,3.4-3.4,3.4h-126.3c-1.9,0-3.4-1.5-3.4-3.4v-33.8
	C-279.9,461-278.4,459.5-276.5,459.5z"/>
<path class="st5" d="M-282.3,438.1h2.3l2.5,7.9l2.6-7.9h2.2l-3.6,10.3h-2.7L-282.3,438.1z M-272.2,443.2c0-3.1,2.1-5.4,5.1-5.4
	s5.1,2.2,5.1,5.4c0,3.1-2.1,5.3-5.1,5.3C-270,448.6-272.2,446.4-272.2,443.2z M-267,446.6c1.7,0,2.9-1.3,2.9-3.3s-1.1-3.4-2.9-3.4
	c-1.8,0-2.9,1.3-2.9,3.4C-269.9,445.3-268.9,446.6-267,446.6z M-258.7,440.1h-3v-2h8.1v2h-3v8.3h-2.1L-258.7,440.1L-258.7,440.1z
	 M-252,438.1h2.1v10.3h-2.1V438.1L-252,438.1z M-247.9,438.1h2.8l3.9,7.9v-7.9h2v10.3h-2.8l-3.9-7.9v7.9h-2V438.1L-247.9,438.1z
	 M-237.6,443.3c0-3.3,2.2-5.4,5.8-5.4c1.2,0,2.2,0.2,3,0.6v2.2c-0.9-0.6-1.8-0.8-3-0.8c-2.3,0-3.7,1.3-3.7,3.4c0,2,1.3,3.3,3.4,3.3
	c0.5,0,0.9-0.1,1.3-0.2v-2.1h-2.1v-1.8h4.1v5.4c-1,0.5-2.1,0.8-3.3,0.8C-235.5,448.6-237.6,446.5-237.6,443.3L-237.6,443.3z
	 M-223.1,438.1h4.1c2.2,0,3.6,1.3,3.6,3.4c0,2.1-1.3,3.4-3.6,3.4h-2v3.6h-2.1L-223.1,438.1L-223.1,438.1z M-219.1,442.9
	c1.1,0,1.5-0.5,1.5-1.4c0-1-0.5-1.4-1.5-1.4h-1.8v2.8L-219.1,442.9L-219.1,442.9z M-214.5,443.2c0-3.1,2.1-5.4,5.1-5.4
	c3,0,5.1,2.2,5.1,5.4c0,3.1-2.1,5.3-5.1,5.3C-212.4,448.6-214.5,446.4-214.5,443.2z M-209.4,446.6c1.7,0,2.9-1.3,2.9-3.3
	s-1.1-3.4-2.9-3.4s-2.9,1.3-2.9,3.4C-212.3,445.3-211.2,446.6-209.4,446.6z M-203.8,438.1h2.2l1.6,7.5l1.8-7.5h2.3l1.7,7.5l1.7-7.5
	h2.2l-2.6,10.3h-2.4l-1.8-7.9l-1.7,7.9h-2.4L-203.8,438.1L-203.8,438.1z M-188.9,438.1h6.7v2h-4.5v2.1h4.3v2h-4.3v2.2h4.7v2h-6.8
	L-188.9,438.1L-188.9,438.1z M-180.3,438.1h4.3c1.9,0,3.2,1.3,3.2,3.1c0,1.8-1.2,3-2.9,3.1l3.4,4.1h-2.6l-3.4-4.2v4.2h-2
	L-180.3,438.1L-180.3,438.1z M-176.3,442.7c1,0,1.4-0.5,1.4-1.3c0-0.9-0.6-1.4-1.4-1.4h-1.9v2.8L-176.3,442.7L-176.3,442.7z
	 M-434.6,438.1h4.1c2.9,0,5,2,5,5.2s-2,5.2-5,5.2h-4.1V438.1z M-430.8,446.4c2,0,3.1-1.2,3.1-3.1s-1.2-3.2-3.1-3.2h-1.7v6.3H-430.8z
	 M-423.4,438.1h2.1v10.3h-2.1V438.1z M-418.7,447.7v-2.2c1,0.7,2,1.1,3.1,1.1s1.6-0.5,1.6-1.2c0-0.7-0.4-1-1.2-1.2l-1.2-0.3
	c-1.7-0.5-2.6-1.4-2.6-3c0-1.9,1.4-3.1,3.8-3.1c1,0,2,0.2,2.8,0.7v2.2c-0.9-0.6-1.8-0.8-2.9-0.8c-0.9,0-1.5,0.4-1.5,1.1
	c0,0.6,0.4,0.9,1.2,1.1l1.3,0.4c1.7,0.5,2.5,1.4,2.5,3c0,2-1.4,3.3-3.7,3.3C-416.6,448.6-417.8,448.3-418.7,447.7z M-407.2,440.1h-3
	v-2h8.1v2h-3v8.3h-2.1C-407.2,448.4-407.2,440.1-407.2,440.1z M-399.9,438.1h4.3c1.9,0,3.2,1.3,3.2,3.1c0,1.8-1.2,3-2.9,3.1l3.4,4.1
	h-2.6l-3.4-4.2v4.2h-2V438.1z M-396,442.7c1,0,1.4-0.5,1.4-1.3c0-0.9-0.6-1.4-1.4-1.4h-1.9v2.8L-396,442.7L-396,442.7z
	 M-390.1,438.1h2.1v10.3h-2.1V438.1z M-385.3,438.1h4.3c1.9,0,3.1,1.1,3.1,2.7c0,1.1-0.5,1.8-1.4,2.2c1.1,0.3,1.7,1.3,1.7,2.4
	c0,1.8-1.3,3-3.4,3h-4.4V438.1L-385.3,438.1z M-381.2,442.3c0.9,0,1.4-0.5,1.4-1.3c0-0.8-0.5-1.3-1.4-1.3h-2v2.4L-381.2,442.3
	L-381.2,442.3z M-380.9,446.6c0.9,0,1.4-0.5,1.4-1.3c0-0.8-0.6-1.3-1.4-1.3h-2.3v2.5L-380.9,446.6L-380.9,446.6z M-375.4,444.1v-6.1
	h2.1v6.1c0,1.5,0.9,2.4,2.2,2.4s2.2-0.9,2.2-2.4v-6.1h2.1v6.1c0,2.8-1.6,4.4-4.3,4.4S-375.5,446.9-375.4,444.1z M-361.7,440.1h-3v-2
	h8.1v2h-3v8.3h-2.1C-361.7,448.4-361.7,440.1-361.7,440.1z M-354.5,438.1h2.1v10.3h-2.1V438.1L-354.5,438.1z M-350.2,443.2
	c0-3.1,2.1-5.4,5.1-5.4c3,0,5.1,2.2,5.1,5.4s-2.1,5.3-5.1,5.3C-348.1,448.5-350.2,446.4-350.2,443.2z M-345.1,446.6
	c1.7,0,2.9-1.3,2.9-3.4s-1.2-3.4-2.9-3.4s-2.9,1.3-2.9,3.4S-346.9,446.6-345.1,446.6z M-337.8,438.1h2.8l3.9,7.9v-7.9h2v10.3h-2.8
	l-3.9-7.9v7.9h-2V438.1L-337.8,438.1z M-326.5,447.7v-2.2c1,0.7,2,1.1,3.1,1.1s1.6-0.5,1.6-1.2c0-0.7-0.4-1-1.2-1.2l-1.2-0.3
	c-1.7-0.5-2.5-1.4-2.5-3c0-1.9,1.4-3.1,3.8-3.1c1.1,0,2,0.2,2.8,0.7v2.2c-0.9-0.6-1.8-0.8-2.9-0.8c-0.9,0-1.5,0.4-1.5,1.1
	c0,0.6,0.4,0.9,1.2,1.1l1.3,0.4c1.7,0.5,2.5,1.4,2.5,3c0,2-1.4,3.3-3.7,3.3C-324.4,448.6-325.5,448.3-326.5,447.7L-326.5,447.7z
	 M-434.6,259.7h4.1c2.1,0,3.6,1.3,3.6,3.4c0,2.1-1.4,3.4-3.6,3.4h-2v3.6h-2.1V259.7z M-430.7,264.5c1.1,0,1.5-0.5,1.5-1.4
	c0-1-0.5-1.4-1.5-1.4h-1.8v2.8L-430.7,264.5L-430.7,264.5z M-424.8,259.7h4.3c1.9,0,3.2,1.3,3.2,3.1s-1.2,3-2.9,3.1l3.4,4.1h-2.6
	l-3.4-4.2v4.2h-2V259.7z M-420.9,264.3c1,0,1.4-0.5,1.4-1.4c0-0.9-0.6-1.3-1.4-1.3h-1.9v2.8L-420.9,264.3L-420.9,264.3z
	 M-415.6,264.8c0-3.1,2.1-5.4,5.1-5.4s5.1,2.2,5.1,5.4s-2.1,5.3-5.1,5.3S-415.6,268-415.6,264.8z M-410.5,268.2
	c1.7,0,2.9-1.3,2.9-3.4c0-2.1-1.2-3.4-2.9-3.4s-2.9,1.3-2.9,3.4C-413.4,266.9-412.4,268.2-410.5,268.2z M-403.2,259.7h4.1
	c2.1,0,3.6,1.3,3.6,3.4c0,2.1-1.4,3.4-3.6,3.4h-2v3.6h-2.1V259.7z M-399.3,264.5c1.1,0,1.5-0.5,1.5-1.4c0-1-0.6-1.4-1.5-1.4h-1.8
	v2.8L-399.3,264.5L-399.3,264.5z M-394,264.9c0-3.1,2.1-5.4,5.1-5.4s5.1,2.2,5.1,5.4s-2.1,5.3-5.1,5.3S-394,268-394,264.9z
	 M-388.8,268.2c1.7,0,2.9-1.3,2.9-3.4c0-2.1-1.2-3.4-2.9-3.4s-2.9,1.3-2.9,3.4C-391.7,266.9-390.7,268.2-388.8,268.2z M-381.9,269.3
	v-2.2c1,0.7,2,1.1,3.1,1.1c1.1,0,1.6-0.5,1.6-1.2s-0.4-1-1.2-1.2l-1.2-0.3c-1.7-0.5-2.6-1.4-2.6-3c0-1.9,1.4-3.1,3.8-3.1
	c1.1,0,2,0.2,2.8,0.7v2.2c-0.9-0.6-1.8-0.8-2.9-0.8c-0.9,0-1.5,0.4-1.5,1.1c0,0.6,0.4,0.9,1.2,1.1l1.3,0.4c1.7,0.5,2.5,1.4,2.5,3
	c0,2-1.4,3.3-3.7,3.3C-379.8,270.2-380.9,269.9-381.9,269.3z M-370.1,259.7h2.7l3.6,10.3h-2.2l-0.8-2.4h-3.9l-0.8,2.4h-2.1
	C-373.6,270-370.1,259.7-370.1,259.7z M-367.4,265.8l-1.4-4l-1.4,4H-367.4z M-361.9,259.7h2.1v8.3h4.5v2h-6.7
	C-361.9,270-361.9,259.7-361.9,259.7z M-353.2,269.3v-2.2c1,0.7,2,1.1,3.1,1.1c1.1,0,1.6-0.5,1.6-1.2s-0.4-1-1.2-1.2l-1.2-0.3
	c-1.7-0.5-2.6-1.4-2.6-3c0-1.9,1.4-3.1,3.8-3.1c1.1,0,2,0.2,2.8,0.7v2.2c-0.9-0.6-1.8-0.8-2.9-0.8c-0.9,0-1.5,0.4-1.5,1.1
	c0,0.6,0.4,0.9,1.2,1.1l1.3,0.4c1.7,0.5,2.5,1.4,2.5,3c0,2-1.4,3.3-3.7,3.3C-351,270.2-352.2,269.9-353.2,269.3z M-434.6,201.8h2.8
	l3.9,7.9v-7.9h2v10.3h-2.8l-3.9-7.9v7.9h-2V201.8L-434.6,201.8z M-420.5,201.8h2.7l3.6,10.3h-2.2l-0.8-2.5h-3.9l-0.8,2.5h-2.2
	C-424,212.1-420.5,201.8-420.5,201.8z M-417.8,207.8l-1.4-4l-1.4,4C-420.5,207.8-417.8,207.8-417.8,207.8z M-412.3,201.8h3.2
	l2.4,7.9l2.4-7.9h3.2v10.3h-1.9v-8.3l-2.7,8.3h-2l-2.6-8.2v8.2h-1.9V201.8L-412.3,201.8z M-398.4,201.8h6.7v2h-4.6v2.1h4.2v2h-4.2
	v2.2h4.7v2h-6.8V201.8L-398.4,201.8z"/>
<path class="st6" d="M-232.9,33.6h2.9c1.6,0,2.7,1,2.7,2.5c0,2-1.2,3.2-3.4,3.2h-1.9l-0.7,3.2h-1.5L-232.9,33.6L-232.9,33.6z
	 M-230.6,37.8c1.2,0,1.8-0.6,1.8-1.6c0-0.7-0.5-1.2-1.4-1.2h-1.5l-0.6,2.8H-230.6L-230.6,37.8z M-227.2,39.6c0-2.2,1.4-3.7,3.4-3.7
	c1.8,0,3,1.2,3,3c0,2.2-1.4,3.7-3.4,3.7C-226,42.6-227.2,41.4-227.2,39.6z M-224.2,41.3c1.1,0,1.9-1,1.9-2.4c0-1-0.6-1.6-1.5-1.6
	c-1.1,0-1.9,1-1.9,2.4C-225.7,40.7-225.1,41.3-224.2,41.3z M-219.6,36.1h1.4l0.3,4.6l2.2-4.6h1.6l0.2,4.6l2.2-4.6h1.5l-3.2,6.4h-1.6
	l-0.2-4.9l-2.3,4.9h-1.6L-219.6,36.1L-219.6,36.1z M-210.4,39.6c0-2.2,1.4-3.7,3.5-3.7c1.9,0,2.9,1.5,2.2,3.8h-4.3
	c0,1.1,0.8,1.6,2,1.6c0.8,0,1.4-0.2,2-0.6l-0.3,1.4c-0.6,0.3-1.3,0.5-2,0.4C-209.2,42.6-210.4,41.4-210.4,39.6L-210.4,39.6z
	 M-205.9,38.6c0.1-0.8-0.3-1.4-1.2-1.4s-1.5,0.6-1.8,1.4H-205.9L-205.9,38.6z M-202.5,36.1h1.5l-0.3,1.2c0.8-1.6,2.5-1.3,2.7-1.2
	l-0.3,1.4c-0.2-0.1-2.2-0.6-2.7,1.6l-0.7,3.4h-1.5L-202.5,36.1z M-198.7,39.6c0-2.2,1.4-3.7,3.5-3.7c1.9,0,2.9,1.5,2.2,3.8h-4.3
	c0,1.1,0.8,1.6,2,1.6c0.8,0,1.4-0.2,2-0.6l-0.3,1.4c-0.6,0.3-1.3,0.5-2,0.4C-197.6,42.6-198.7,41.4-198.7,39.6L-198.7,39.6z
	 M-194.2,38.6c0.1-0.8-0.3-1.4-1.2-1.4s-1.5,0.6-1.8,1.4H-194.2L-194.2,38.6z M-192,39.9c0-2.4,1.3-4,3.1-4c1,0,1.7,0.5,2,1.3
	l0.8-3.6h1.5l-1.9,8.8h-1.5l0.2-0.9c-0.4,0.7-1.1,1.1-1.9,1C-191.2,42.6-192.1,41.5-192,39.9L-192,39.9z M-189.2,41.3
	c0.8,0,1.5-0.6,1.7-1.5l0.2-0.8c0.2-1.1-0.3-1.9-1.3-1.9c-1.1,0-1.9,1-1.9,2.5C-190.5,40.7-190,41.3-189.2,41.3L-189.2,41.3z
	 M-179.9,41.3l-0.2,1.1h-1.5l1.9-8.8h1.5l-0.7,3.3c0.4-0.6,1.1-1,1.9-1c1.4,0,2.3,1.1,2.3,2.7c0,2.4-1.3,4-3.1,4
	C-178.8,42.6-179.6,42.1-179.9,41.3L-179.9,41.3z M-178.1,41.3c1.1,0,1.8-1,1.8-2.5c0-1-0.5-1.6-1.3-1.6s-1.5,0.5-1.7,1.5l-0.2,0.8
	C-179.7,40.5-179.2,41.3-178.1,41.3L-178.1,41.3z M-172.7,42.4l-1-6.4h1.5l0.6,4.6l2.6-4.6h1.6l-5.1,8.8h-1.7L-172.7,42.4
	L-172.7,42.4z M-150,35.9c0.9-0.8,2.5-2.1,4.7-3.5c1.6,1.1,3.2,2.2,4.7,3.5c0.2,1.1,0.6,3.2,0.7,5.8c-1.7,0.9-3.5,1.6-5.4,2.3
	c-1.8-0.6-3.6-1.4-5.4-2.3C-150.6,39.1-150.2,37-150,35.9z M-137.4,28.2c0,0,0.8-0.3,1.7-0.4c-2.5-2.3-5.8-3.6-9.2-3.7
	c0.6,0.7,1.2,1.6,1.8,2.7C-141.4,27-139.2,27.4-137.4,28.2L-137.4,28.2z M-140,45.9c-2-0.4-3.9-0.9-5.3-1.5
	c-1.7,0.6-3.5,1.1-5.3,1.5c0.1,1.4,0.3,2.9,0.7,4.4c0,0,1.5,1.8,4.6,2.7c3.1-0.9,4.6-2.7,4.6-2.7C-140.4,48.9-140.1,47.4-140,45.9
	L-140,45.9z M-153.3,28.2c1.8-0.7,3.8-1.2,5.7-1.5c0.5-1,1.1-1.9,1.8-2.7c-3.4,0.1-6.7,1.4-9.2,3.7
	C-154.1,27.9-153.3,28.2-153.3,28.2z M-157.9,36.7c1.1,1,2.2,2,3.5,2.8c1.2-1.4,2.5-2.7,3.9-3.9c0.3-1.5,0.7-3.4,1.4-5.4
	c-1.3-0.7-2.7-1.2-4.2-1.6c0,0-2.3,0.4-4.6,2.6C-158.6,34.5-157.9,36.7-157.9,36.7L-157.9,36.7z M-132.9,36.7c0,0,0.8-2.2,0-5.3
	c-2.4-2.2-4.6-2.6-4.6-2.6c-1.5,0.4-2.9,1-4.2,1.6c0.6,1.7,1.1,3.5,1.4,5.4c1.4,1.2,2.7,2.5,3.9,3.9
	C-135.1,38.7-133.9,37.7-132.9,36.7L-132.9,36.7z M-158.3,36.9c0,0-0.6-0.5-1.2-1.3c-0.7,3.2-0.3,6.7,1.4,9.8
	c0.3-0.9,0.8-1.9,1.4-2.9C-157.5,40.7-158,38.8-158.3,36.9L-158.3,36.9z M-150.4,50.6c-1.6-1.2-2.9-2.6-4.1-4.2
	c-1.2,0.1-2.3,0-3.2-0.2c1.8,2.9,4.5,5.1,7.8,6.1C-150.2,51.4-150.4,50.6-150.4,50.6L-150.4,50.6z M-132.4,36.9c0,0,0.6-0.5,1.2-1.3
	c0.7,3.2,0.3,6.7-1.4,9.8c-0.3-0.9-0.8-1.9-1.4-2.9C-133.2,40.7-132.7,38.8-132.4,36.9L-132.4,36.9z M-140.4,50.6
	c1.6-1.2,2.9-2.6,4.1-4.2c1.2,0.1,2.3,0,3.2-0.2c-1.8,2.9-4.5,5.1-7.8,6.1C-140.5,51.4-140.4,50.6-140.4,50.6L-140.4,50.6z
	 M-145.4,25.9l-4,2.4l1.2,3.8h5.5l1.2-3.8L-145.4,25.9L-145.4,25.9z M-156.4,44.9l4,2.3l2.7-2.9l-2.8-4.8l-3.9,0.8L-156.4,44.9
	L-156.4,44.9z M-134.4,44.9l-0.1-4.6l-3.9-0.8l-2.8,4.8l2.7,2.9L-134.4,44.9L-134.4,44.9z"/>
<linearGradient id="SVGID_00000144329326410611472540000002537228679149692581_" gradientUnits="userSpaceOnUse" x1="-2826.6116" y1="987.9924" x2="-2826.6116" y2="986.4924" gradientTransform="matrix(104.5754 0 0 -130.8568 295241.7188 129257.9531)">
	<stop  offset="0" style="stop-color:#B1EFFD"/>
	<stop  offset="1" style="stop-color:#00C1FA"/>
</linearGradient>
<path style="fill:url(#SVGID_00000144329326410611472540000002537228679149692581_);" d="M-360.7,114.8c-1.1-3.5-2.3-7-3.6-10.5
	c4.9-5.3,34-39.3,23.7-66.4c10.2,10.3,7.9,27.8,3.5,40.5C-341.8,91-350.1,103.9-360.7,114.8L-360.7,114.8z M-330.9,134.9
	c-5.7,5.9-19.7,17.3-20.9,18.1c2.5,2.1,5,4,7.7,5.8c7.1-5.3,13.5-11.2,19.4-17.8C-326.8,139-328.9,136.9-330.9,134.9L-330.9,134.9z
	 M-359.5,118.8c1.1,3.7,2.1,7.4,3,11.1c-4.6-1.3-8.4-2.4-11.9-3.7c-6.4,4.9-13.2,9.2-20.4,12.7l15.3,5.3
	c14.3-7.9,27.1-20.1,36.5-33.4c0,0,8.3-12.1,12-22.8c2.5-7.2,4.3-16,3.4-24c-2.1-11.8-6.7-15.3-9-17c5.9,5.5,3.1,26.8-2.7,38.5
	C-339.3,97.1-348.6,108.8-359.5,118.8L-359.5,118.8z M-302.6,82.3c0,7.4-2.9,15.1-6.2,21.9c1.6,2.1,3.1,4.2,4.3,6.3
	C-296.8,94.5-300.9,84.7-302.6,82.3z M-404.6,133.6l12.1,4.1c7.4-3.4,14.3-7.6,20.7-12.7c-3.5-1.3-6.9-2.8-10.2-4.3
	C-389,125.9-396.5,130.3-404.6,133.6L-404.6,133.6z M-319.9,92.4c0.8,0.7,5.2,5,6.5,6.4c6.2-16,0.8-27.8-1.2-29.5
	C-314,77-316.6,85.2-319.9,92.4L-319.9,92.4z M-333.7,131.5l-2.4-14.6c-9.9,11.3-21.5,20.9-34.5,28.4c6.6,2.3,12.2,4.2,14.9,5.2
	C-347.6,145.1-340.2,138.8-333.7,131.5L-333.7,131.5z M-374.8,165c4.3,2.8,12.5,4.1,18.1,1.2c5.8-3.7-0.6-8-7.7-9.5
	c-9.5-2-16.2,1.2-12.9,6C-376.9,163.2-376.2,164.1-374.8,165 M-376.6,165.4c-3.4-2.3-6.5-6.9-0.2-9.7c10-3.3,27.4,3.1,24.1,8.9
	c-0.6,1-1.4,1.5-2.3,2.1h0v0h0v0h0C-361.9,170.2-371.5,168.8-376.6,165.4 M-371.3,161.7c1.4,1,3.3,1.2,4.9,0.5l1.3-0.7l-4.5-2.3
	l-1.4,0.8C-371.4,160.1-372.5,160.8-371.3,161.7 M-372.9,162.3c-2.3-1.5-0.8-2.5,0-3c1.1-0.5,2.1-1.1,3.2-1.7
	c6.7,3.5,7,3.7,12.7,5.9l-1.3,0.8c-1.9-0.8-4.4-1.8-6.2-2.6c0.8,1.3,1.9,3.2,2.8,4.5l-1.6,0.8c-0.7-1.2-1.7-2.9-2.4-4.1
	C-368.9,164.9-372.5,162.5-372.9,162.3"/>
<linearGradient id="SVGID_00000075868805314031909860000015749102754190292633_" gradientUnits="userSpaceOnUse" x1="-2832.0317" y1="987.6041" x2="-2832.0317" y2="986.6041" gradientTransform="matrix(138.9938 0 0 -135.1639 393255.1875 133512.5625)">
	<stop  offset="0" style="stop-color:#FFFFFF"/>
	<stop  offset="0.5" style="stop-color:#A7B8CF"/>
</linearGradient>
<path style="fill:url(#SVGID_00000075868805314031909860000015749102754190292633_);" d="M-310.1,60.1c-15.1-27.3-38.3-36-53.5-36
	c-11.5,0-25,5.6-35.5,12.7c9.2,4.2,21.1,15.4,21.2,15.5c-7.7-2.9-17.2-6.5-32-7.6c-7,5.9-13.4,12.4-19.1,19.7
	c0.7,7.4,2.8,15.1,2.8,15.1c-6.1-4.6-10.6-4.4-17.4,9.1c-5.2,12.2-6.7,23.4-4.5,32c0,0,4.6,25.8,34.9,38.6
	c-1.3-4.4-1.5-9.6-0.9-15.2c-5.3-2.6-10.4-5.8-15.1-9.5c0.8-6.4,2.7-13.3,5.8-20.6c4.3-10.3,4.2-14.6,4.2-14.6
	c0,0.1,5.3,12,12.5,21.3c4.1-8.5,9.1-15.5,13.2-21.1l-3.6-6.5c5.3-6.5,11.2-12.6,17.5-18.1c2,1,4.6,2.4,6.6,3.5
	c8.4-7,18.6-13.5,29.5-17.6c-6.8-11.1-15.4-18.6-15.4-18.6s26.7,2.6,40.5,15.1C-315.6,57.8-312.7,58.7-310.1,60.1L-310.1,60.1z
	 M-436,113.3c-1.2,3.9-2.1,8-2.6,12.1c-2.3-2.6-4.3-5.5-6-8.5c0.5-4,1.4-7.9,2.6-11.7c1.7-5.1,3.2-5.7,5.7-2.2v0
	C-434.4,106-434.7,108.9-436,113.3z M-404.1,79.3L-404.1,79.3c-2.8-5.7-5.3-11.5-7.5-17.4l0.1-0.1c6.1,1.9,12,4.2,17.9,6.7
	C-397.3,71.9-400.8,75.5-404.1,79.3L-404.1,79.3z M-351.2,33.6c-4.3,0.7-8.7,1.9-13.2,3.6c-2.4-1.9-4.9-3.6-7.5-5.1
	c4.1-1.6,8.3-2.7,12.6-3.4c1.5-0.2,6-0.8,10,2.3v0C-347,32.8-349.3,33.2-351.2,33.6L-351.2,33.6z"/>
<path class="st9" d="M-188.8,167.8c-7.4,0-13.5-6.1-13.5-13.5s6.1-13.5,13.5-13.5h43.4c7.4,0,13.5,6.1,13.5,13.5
	s-6.1,13.5-13.5,13.5H-188.8z"/>
<path class="st10" d="M-167.1,75.4c-20,0-36.2,11.2-36.2,25s16.2,25,36.2,25s36.2-11.2,36.2-25S-147.1,75.4-167.1,75.4z
	 M-154.7,115.6v-7l9.4-3.1l-24.6-8l13.5,18.6c-6.5,1.7-13.3,1.8-19.9,0.4v-8l9.4-3.1l-24.6-8l13.6,18.7c-10.5-2.9-18-9.9-18-18
	c0-6,4-11.4,10.3-14.9l13.7,18.9v-9.9l9.4-3.1l-21.3-6.9c5.2-2.4,10.9-3.6,16.6-3.6c10.9,0,20.4,4.1,25.3,10.1l-22.3-7.3l15.2,20.9
	v-9.9l8-2.6c1.7,2.4,2.6,5.2,2.7,8.2C-138.2,105.8-145,112.5-154.7,115.6L-154.7,115.6z"/>
<g>
	<defs>
		<path id="SVGID_00000095303031201039079580000011412011709453436039_" d="M-368.7,475.9l1.3,4.8h-3.6l1.4-4.8l0.4-1.9h0.2
			L-368.7,475.9z M-298.7,462.9v33.8c0,2.7-2.2,4.8-4.8,4.8h-126.3c-2.7,0-4.8-2.2-4.8-4.8v-33.8c0-2.7,2.2-4.8,4.8-4.8h126.3
			C-300.8,458-298.7,460.2-298.7,462.9z M-388.8,473c-1.6-1.4-3-2-5.3-2c-3.7,0-7.1,3.1-7.1,8.3c0,6.1,3.1,9,7.1,9
			c2.3,0,4-0.8,5.3-2.4v-3.9c-1,1.5-2.3,2.8-4.4,2.8c-3.1,0-4-3.3-4-5.2c0-3.3,1.7-4.8,4-4.8c1.7,0,3.1,0.7,4.5,2.8L-388.8,473
			L-388.8,473z M-378,484.4h-4.2v-13.1h-4.1v16.7h8.3V484.4L-378,484.4z M-361.3,488.1l-4.9-16.7h-5.9l-4.9,16.7h4.1l1-3.9h5.4
			l1,3.9C-365.4,488.1-361.3,488.1-361.3,488.1z M-355.3,471.4h-4.1v16.7h4.1V471.4z M-334,471.4h-6.2l-2.4,9.4l-0.3,3.5h-0.2
			l-0.3-3.5l-2.4-9.4h-6.2v16.7h4V478c0-0.4-0.1-2.1-0.2-3h0.2l3,13h3.8l3-13h0.2l-0.2,3v10.1h4L-334,471.4L-334,471.4z"/>
	</defs>
	<clipPath id="SVGID_00000088131255427771095470000013761563054024705669_">
		<use xlink:href="#SVGID_00000095303031201039079580000011412011709453436039_"  style="overflow:visible;"/>
	</clipPath>
	<g style="clip-path:url(#SVGID_00000088131255427771095470000013761563054024705669_);">
		<rect x="-434.6" y="458" class="st3" width="136.9" height="48.2"/>
	</g>
</g>
<radialGradient id="SVGID_00000129894195657375009000000015026216192260331147_" cx="-2840.8066" cy="990.1203" r="2" gradientTransform="matrix(318.2143 0 0 -332.6786 903854.4375 329408.6875)" gradientUnits="userSpaceOnUse">
	<stop  offset="0" style="stop-color:#DCE5F0"/>
	<stop  offset="0.5" style="stop-color:#DCE5F0;stop-opacity:0"/>
</radialGradient>
<path style="fill:url(#SVGID_00000129894195657375009000000015026216192260331147_);" d="M-434.6,183.2h289.3
	c8,0,14.5,6.5,14.5,14.5v303.8c0,8-6.5,14.5-14.5,14.5h-289.3c-8,0-14.5-6.5-14.5-14.5V197.7C-449.1,189.7-442.6,183.2-434.6,183.2z
	"/>
<text transform="matrix(1 0 0 1 -176.9185 160.0718)" class="st6" style="font-family:'Roboto-Medium'; font-size:11.5714px;">001</text>
<g>
	<path class="st13" d="M125.4,10.1h289.3c15.7,0,28.4,12.7,28.4,28.4v462.9c0,15.7-12.7,28.4-28.4,28.4H125.4
		c-15.7,0-28.4-12.7-28.4-28.4V38.6C96.9,22.9,109.6,10.1,125.4,10.1z"/>
	<path class="st14" d="M125.4,182.7h289.3c8.3,0,14.9,6.7,14.9,14.9v303.8c0,8.3-6.7,14.9-14.9,14.9H125.4
		c-8.3,0-14.9-6.7-14.9-14.9V197.7C110.4,189.4,117.1,182.7,125.4,182.7z"/>
	<path class="st14" d="M327.1,33.6h2.9c1.6,0,2.7,1,2.7,2.5c0,2-1.2,3.2-3.4,3.2h-1.9l-0.7,3.2h-1.5L327.1,33.6L327.1,33.6z
		 M329.4,37.8c1.2,0,1.8-0.6,1.8-1.6c0-0.7-0.5-1.2-1.4-1.2h-1.5l-0.6,2.8H329.4L329.4,37.8z M332.8,39.6c0-2.2,1.4-3.7,3.4-3.7
		c1.8,0,3,1.2,3,3c0,2.2-1.4,3.7-3.4,3.7C334,42.6,332.8,41.4,332.8,39.6z M335.8,41.3c1.1,0,1.9-1,1.9-2.4c0-1-0.6-1.6-1.5-1.6
		c-1.1,0-1.9,1-1.9,2.4C334.3,40.7,334.9,41.3,335.8,41.3z M340.4,36.1h1.4l0.3,4.6l2.2-4.6h1.6l0.2,4.6l2.2-4.6h1.5l-3.2,6.4H345
		l-0.2-4.9l-2.3,4.9h-1.6L340.4,36.1L340.4,36.1z M349.6,39.6c0-2.2,1.4-3.7,3.5-3.7c1.9,0,2.9,1.5,2.2,3.8H351c0,1.1,0.8,1.6,2,1.6
		c0.8,0,1.4-0.2,2-0.6l-0.3,1.4c-0.6,0.3-1.3,0.5-2,0.4C350.8,42.6,349.6,41.4,349.6,39.6L349.6,39.6z M354.1,38.6
		c0.1-0.8-0.3-1.4-1.2-1.4s-1.5,0.6-1.8,1.4H354.1L354.1,38.6z M357.5,36.1h1.5l-0.3,1.2c0.8-1.6,2.5-1.3,2.7-1.2l-0.3,1.4
		c-0.2-0.1-2.2-0.6-2.7,1.6l-0.7,3.4h-1.5L357.5,36.1z M361.3,39.6c0-2.2,1.4-3.7,3.5-3.7c1.9,0,2.9,1.5,2.2,3.8h-4.3
		c0,1.1,0.8,1.6,2,1.6c0.8,0,1.4-0.2,2-0.6l-0.3,1.4c-0.6,0.3-1.3,0.5-2,0.4C362.4,42.6,361.3,41.4,361.3,39.6L361.3,39.6z
		 M365.8,38.6c0.1-0.8-0.3-1.4-1.2-1.4s-1.5,0.6-1.8,1.4H365.8L365.8,38.6z M368,39.9c0-2.4,1.3-4,3.1-4c1,0,1.7,0.5,2,1.3l0.8-3.6
		h1.5l-1.9,8.8h-1.5l0.2-0.9c-0.4,0.7-1.1,1.1-1.9,1C368.8,42.6,367.9,41.5,368,39.9L368,39.9z M370.8,41.3c0.8,0,1.5-0.6,1.7-1.5
		l0.2-0.8c0.2-1.1-0.3-1.9-1.3-1.9c-1.1,0-1.9,1-1.9,2.5C369.5,40.7,370,41.3,370.8,41.3L370.8,41.3z M380.1,41.3l-0.2,1.1h-1.5
		l1.9-8.8h1.5l-0.7,3.3c0.4-0.6,1.1-1,1.9-1c1.4,0,2.3,1.1,2.3,2.7c0,2.4-1.3,4-3.1,4C381.2,42.6,380.4,42.1,380.1,41.3L380.1,41.3z
		 M381.9,41.3c1.1,0,1.8-1,1.8-2.5c0-1-0.5-1.6-1.3-1.6c-0.9,0-1.5,0.5-1.7,1.5l-0.2,0.8C380.3,40.5,380.8,41.3,381.9,41.3
		L381.9,41.3z M387.3,42.4l-1-6.4h1.5l0.6,4.6l2.6-4.6h1.6l-5.1,8.8h-1.7L387.3,42.4L387.3,42.4z M410,35.9c0.9-0.8,2.5-2.1,4.7-3.5
		c1.6,1.1,3.2,2.2,4.7,3.5c0.2,1.1,0.6,3.2,0.7,5.8c-1.7,0.9-3.5,1.6-5.4,2.3c-1.8-0.6-3.6-1.4-5.4-2.3
		C409.4,39.1,409.8,37,410,35.9z M422.6,28.2c0,0,0.8-0.3,1.7-0.4c-2.5-2.3-5.8-3.6-9.2-3.7c0.6,0.7,1.2,1.6,1.8,2.7
		C418.6,27,420.8,27.4,422.6,28.2L422.6,28.2z M420,45.9c-2-0.4-3.9-0.9-5.3-1.5c-1.7,0.6-3.5,1.1-5.3,1.5c0.1,1.4,0.3,2.9,0.7,4.4
		c0,0,1.5,1.8,4.6,2.7c3.1-0.9,4.6-2.7,4.6-2.7C419.6,48.9,419.9,47.4,420,45.9L420,45.9z M406.7,28.2c1.8-0.7,3.8-1.2,5.7-1.5
		c0.5-1,1.1-1.9,1.8-2.7c-3.4,0.1-6.7,1.4-9.2,3.7C405.9,27.9,406.7,28.2,406.7,28.2z M402.1,36.7c1.1,1,2.2,2,3.5,2.8
		c1.2-1.4,2.5-2.7,3.9-3.9c0.3-1.5,0.7-3.4,1.4-5.4c-1.3-0.7-2.7-1.2-4.2-1.6c0,0-2.3,0.4-4.6,2.6C401.4,34.5,402.1,36.7,402.1,36.7
		L402.1,36.7z M427.1,36.7c0,0,0.8-2.2,0-5.3c-2.4-2.2-4.6-2.6-4.6-2.6c-1.5,0.4-2.9,1-4.2,1.6c0.6,1.7,1.1,3.5,1.4,5.4
		c1.4,1.2,2.7,2.5,3.9,3.9C424.9,38.7,426.1,37.7,427.1,36.7L427.1,36.7z M401.7,36.9c0,0-0.6-0.5-1.2-1.3c-0.7,3.2-0.3,6.7,1.4,9.8
		c0.3-0.9,0.8-1.9,1.4-2.9C402.5,40.7,402,38.8,401.7,36.9L401.7,36.9z M409.6,50.6c-1.6-1.2-2.9-2.6-4.1-4.2
		c-1.2,0.1-2.3,0-3.2-0.2c1.8,2.9,4.5,5.1,7.8,6.1C409.8,51.4,409.6,50.6,409.6,50.6L409.6,50.6z M427.6,36.9c0,0,0.6-0.5,1.2-1.3
		c0.7,3.2,0.3,6.7-1.4,9.8c-0.3-0.9-0.8-1.9-1.4-2.9C426.8,40.7,427.3,38.8,427.6,36.9L427.6,36.9z M419.6,50.6
		c1.6-1.2,2.9-2.6,4.1-4.2c1.2,0.1,2.3,0,3.2-0.2c-1.8,2.9-4.5,5.1-7.8,6.1C419.5,51.4,419.6,50.6,419.6,50.6L419.6,50.6z
		 M414.6,25.9l-4,2.4l1.2,3.8h5.5l1.2-3.8L414.6,25.9L414.6,25.9z M403.6,44.9l4,2.3l2.7-2.9l-2.8-4.8l-3.9,0.8L403.6,44.9
		L403.6,44.9z M425.6,44.9l-0.1-4.6l-3.9-0.8l-2.8,4.8l2.7,2.9L425.6,44.9L425.6,44.9z"/>
	
		<linearGradient id="SVGID_00000111883712906151201520000012019960512238868100_" gradientUnits="userSpaceOnUse" x1="-2821.2566" y1="987.9924" x2="-2821.2566" y2="986.4924" gradientTransform="matrix(104.5754 0 0 -130.8568 295241.7188 129257.9531)">
		<stop  offset="0" style="stop-color:#F1F5F9"/>
		<stop  offset="1" style="stop-color:#CBD5E1"/>
	</linearGradient>
	<path style="fill:url(#SVGID_00000111883712906151201520000012019960512238868100_);" d="M199.3,114.8c-1.1-3.5-2.3-7-3.6-10.5
		c4.9-5.3,34-39.3,23.7-66.4c10.2,10.3,7.9,27.8,3.5,40.5C218.2,91,209.9,103.9,199.3,114.8L199.3,114.8z M229.1,134.9
		c-5.7,5.9-19.7,17.3-20.9,18.1c2.5,2.1,5,4,7.7,5.8c7.1-5.3,13.5-11.2,19.4-17.8C233.2,139,231.1,136.9,229.1,134.9L229.1,134.9z
		 M200.5,118.8c1.1,3.7,2.1,7.4,3,11.1c-4.6-1.3-8.4-2.4-11.9-3.7c-6.4,4.9-13.2,9.2-20.4,12.7l15.3,5.3
		c14.3-7.9,27.1-20.1,36.5-33.4c0,0,8.3-12.1,12-22.8c2.5-7.2,4.3-16,3.4-24c-2.1-11.8-6.7-15.3-9-17c5.9,5.5,3.1,26.8-2.7,38.5
		C220.7,97.1,211.4,108.8,200.5,118.8L200.5,118.8z M257.4,82.3c0,7.4-2.9,15.1-6.2,21.9c1.6,2.1,3.1,4.2,4.3,6.3
		C263.2,94.5,259.1,84.7,257.4,82.3z M155.4,133.6l12.1,4.1c7.4-3.4,14.3-7.6,20.7-12.7c-3.5-1.3-6.9-2.8-10.2-4.3
		C171,125.9,163.5,130.3,155.4,133.6L155.4,133.6z M240.1,92.4c0.8,0.7,5.2,5,6.5,6.4c6.2-16,0.8-27.8-1.2-29.5
		C246,77,243.4,85.2,240.1,92.4L240.1,92.4z M226.3,131.5l-2.4-14.6c-9.9,11.3-21.5,20.9-34.5,28.4c6.6,2.3,12.2,4.2,14.9,5.2
		C212.4,145.1,219.8,138.8,226.3,131.5L226.3,131.5z M185.2,165c4.3,2.8,12.5,4.1,18.1,1.2c5.8-3.7-0.6-8-7.7-9.5
		c-9.4-2-16.2,1.2-12.9,6C183.1,163.2,183.8,164.1,185.2,165 M183.4,165.4c-3.4-2.3-6.5-6.9-0.2-9.7c10-3.3,27.4,3.1,24.1,8.9
		c-0.6,1-1.4,1.5-2.3,2.1h0v0h0v0h0C198.1,170.2,188.5,168.8,183.4,165.4 M188.7,161.7c1.4,1,3.3,1.2,4.9,0.5l1.3-0.7l-4.5-2.3
		l-1.4,0.8C188.6,160.1,187.5,160.8,188.7,161.7 M187.1,162.3c-2.3-1.5-0.8-2.5,0-3c1.1-0.5,2.1-1.1,3.2-1.7c6.7,3.5,7,3.7,12.7,5.9
		l-1.3,0.8c-1.9-0.8-4.4-1.8-6.2-2.6c0.8,1.3,1.9,3.2,2.8,4.5l-1.6,0.8c-0.7-1.2-1.7-2.9-2.4-4.1
		C191.1,164.9,187.5,162.5,187.1,162.3"/>
	
		<linearGradient id="SVGID_00000009590138978030702080000012233942682702409142_" gradientUnits="userSpaceOnUse" x1="-2828.0027" y1="987.6041" x2="-2828.0027" y2="986.6041" gradientTransform="matrix(138.9938 0 0 -135.1639 393255.1875 133512.5625)">
		<stop  offset="0" style="stop-color:#FFFFFF"/>
		<stop  offset="0.5" style="stop-color:#A7B8CF"/>
	</linearGradient>
	<path style="fill:url(#SVGID_00000009590138978030702080000012233942682702409142_);" d="M249.9,60.1c-15.1-27.3-38.3-36-53.5-36
		c-11.5,0-25,5.6-35.5,12.7C170,41,181.9,52.2,182,52.3c-7.7-2.9-17.2-6.5-32-7.6c-7,5.9-13.4,12.4-19.1,19.7
		c0.7,7.4,2.8,15.1,2.8,15.1c-6.1-4.6-10.6-4.4-17.4,9.1c-5.2,12.2-6.7,23.4-4.5,32c0,0,4.6,25.8,34.9,38.6
		c-1.3-4.4-1.5-9.6-0.9-15.2c-5.3-2.6-10.4-5.8-15.1-9.5c0.8-6.4,2.7-13.3,5.8-20.6c4.3-10.3,4.2-14.6,4.2-14.6
		c0,0.1,5.3,12,12.5,21.3c4.1-8.5,9.1-15.5,13.2-21.1l-3.6-6.5c5.3-6.5,11.2-12.6,17.5-18.1c2,1,4.6,2.4,6.6,3.5
		c8.4-7,18.6-13.5,29.5-17.6C209.7,49.7,201,42.2,201,42.2s26.7,2.6,40.5,15.1C244.4,57.8,247.3,58.7,249.9,60.1L249.9,60.1z
		 M124,113.3c-1.2,3.9-2.1,8-2.6,12.1c-2.3-2.6-4.3-5.5-6-8.5c0.5-4,1.4-7.9,2.6-11.7c1.7-5.1,3.2-5.7,5.7-2.2v0
		C125.6,106,125.3,108.9,124,113.3z M155.9,79.3L155.9,79.3c-2.8-5.7-5.3-11.5-7.5-17.4l0.1-0.1c6.1,1.9,12,4.2,17.9,6.7
		C162.7,71.9,159.2,75.5,155.9,79.3L155.9,79.3z M208.8,33.6c-4.3,0.7-8.7,1.9-13.2,3.6c-2.4-1.9-4.9-3.6-7.5-5.1
		c4.1-1.6,8.3-2.7,12.6-3.4c1.5-0.2,6-0.8,10,2.3v0C213,32.8,210.7,33.2,208.8,33.6L208.8,33.6z"/>
	<path class="st14" d="M371.2,167.8c-7.4,0-13.5-6.1-13.5-13.5s6.1-13.5,13.5-13.5h43.4c7.4,0,13.5,6.1,13.5,13.5
		s-6.1,13.5-13.5,13.5H371.2z"/>
	<path class="st14" d="M392.9,75.4c-20,0-36.2,11.2-36.2,25s16.2,25,36.2,25c20,0,36.2-11.2,36.2-25S412.9,75.4,392.9,75.4z
		 M405.3,115.6v-7l9.4-3.1l-24.6-8l13.5,18.6c-6.5,1.7-13.3,1.8-19.9,0.4v-8l9.4-3.1l-24.6-8l13.6,18.7c-10.5-2.9-18-9.9-18-18
		c0-6,4-11.4,10.3-14.9l13.7,18.9v-9.9l9.4-3.1l-21.3-6.9c5.2-2.4,10.9-3.6,16.6-3.6c10.9,0,20.4,4.1,25.3,10.1l-22.3-7.3l15.2,20.9
		v-9.9l8-2.6c1.7,2.4,2.6,5.2,2.7,8.2C421.8,105.8,415,112.5,405.3,115.6L405.3,115.6z"/>
</g>
</svg>
